<svg width="18" height="15" viewBox="0 0 18 15" fill="none" xmlns="http://www.w3.org/2000/svg">
<path d="M9 0C5.97853 0 5.06507 0.351562 5.06507 0.351562C4.42915 0.571289 3.56136 0.88623 3.21002 1.58203C3.03436 1.93359 2.35628 3.89282 1.77659 5.625H1.04581C0.715558 5.625 0.371251 5.896 0.258825 6.24023L0.033971 6.88476C-0.0784553 7.229 0.0972116 7.5 0.427465 7.5H1.15824C1.13716 7.55859 1.01771 7.93945 1.01771 7.93945C0.961492 8.04199 0.905279 8.51807 0.905279 8.64258V14.3262C0.905279 14.6924 1.2004 15 1.55173 15H3.85648C4.20781 15 4.50293 14.6924 4.50293 14.3262V13.125H13.4971V14.3262C13.4971 14.6924 13.7922 15 14.1435 15H16.4483C16.7996 15 17.0947 14.6924 17.0947 14.3262V8.64258C17.0947 8.51807 17.0385 8.04199 16.9823 7.93945C16.9823 7.93945 16.8628 7.55859 16.8418 7.5H17.5725C17.9028 7.5 18.0785 7.22901 17.966 6.88477L17.7412 6.24024C17.6287 5.896 17.2844 5.625 16.9542 5.625H16.2234C15.6507 3.94409 14.9727 2.04346 14.7619 1.55274C14.4527 0.834964 13.476 0.509038 12.9349 0.351566C12.9349 0.351566 12.0215 3.99212e-06 9 3.99212e-06L9 0ZM9 1.37695C13.5708 1.37695 13.6833 2.21558 13.6938 2.22656C13.8343 2.66602 14.4 3.99902 14.8462 5.88867C14.8462 5.88867 12.9068 6.5625 9 6.5625C5.09317 6.5625 3.15381 5.88867 3.15381 5.88867C3.62811 3.83789 4.13755 2.66602 4.24997 2.34375C4.34132 2.10937 4.42915 1.37695 9 1.37695H9ZM2.28251 8.29101C2.37385 8.28003 2.4652 8.29101 2.56357 8.29101C2.95355 8.29101 3.74054 8.63892 4.24997 8.87695C4.80508 9.13696 5.43045 9.35303 5.43045 9.78516C5.43045 10.1843 5.23019 10.3711 4.50293 10.3711H3.5192C2.65843 10.3711 1.80469 10.2393 1.80469 9.66797V8.99414C1.80469 8.49243 2.00847 8.32764 2.28251 8.29102V8.29101ZM15.4364 8.29101C15.8369 8.29101 16.1953 8.32764 16.1953 8.99414V9.66797C16.1953 10.2393 15.3416 10.3711 14.4808 10.3711H13.4971C12.7733 10.3711 12.5695 10.1843 12.5695 9.78515C12.5695 9.35303 13.1949 9.13696 13.75 8.87695C14.2595 8.63891 15.0464 8.29101 15.4364 8.29101L15.4364 8.29101Z" fill="#C92424"/>
</svg>
