<svg width="14" height="18" viewBox="0 0 14 18" fill="none" xmlns="http://www.w3.org/2000/svg">
<path d="M7.46898 0.691391C7.21846 0.435978 6.78108 0.436428 6.53102 0.691391C6.51581 0.706902 6.48108 0.740217 6.42911 0.79007C5.57003 1.61417 -9.53674e-07 6.95742 -9.53674e-07 11.0922C7.43866e-05 14.6255 3.14022 17.5 7 17.5C10.8598 17.5 14 14.6255 14 11.0922C14 6.95742 8.42997 1.61417 7.57089 0.79007C7.51892 0.740217 7.48419 0.706902 7.46898 0.691391ZM13.35 11.0922C13.35 14.2136 10.5561 16.85 7 16.85C3.44394 16.85 0.650065 14.2136 0.649999 11.0922C0.649999 10.141 0.993155 9.06582 1.56198 7.9508C2.12712 6.84299 2.89077 5.74255 3.67491 4.75315C5.05358 3.01358 6.44762 1.67381 6.87516 1.26291C6.93059 1.20963 6.96978 1.17197 6.99058 1.15108C6.99264 1.15056 6.99588 1.15 7.00004 1.15C7.00415 1.15 7.00735 1.15054 7.00939 1.15105C7.03018 1.17194 7.06938 1.20961 7.12484 1.26291C7.55238 1.67381 8.94642 3.01358 10.3251 4.75315C11.1092 5.74255 11.8729 6.84299 12.438 7.9508C13.0068 9.06582 13.35 10.141 13.35 11.0922ZM6.99508 1.14653C6.99484 1.14678 6.99459 1.14702 6.99436 1.14725C6.99459 1.14701 6.99482 1.14679 6.99505 1.14656L6.99508 1.14653ZM7.00493 1.14654L7.00495 1.14656L7.00493 1.14654Z" fill="white" stroke="#C92424" stroke-width="1.3"/>
<path d="M7 0.5L9.69231 3.5L12.3846 7L13.4615 9.5V12L12.9231 13.5L12.3846 14.5L10.7692 15.9999L9.69231 16.5L8.29231 17L7 16.9999V0.5Z" fill="#C92424"/>
</svg>
