<svg width="24" height="24" viewBox="0 0 24 24" fill="none" xmlns="http://www.w3.org/2000/svg">
<path d="M16.3859 4.63068C13.874 4.63068 11.7994 3.00023 8.64131 3.00023C7.47155 3.00023 6.4237 3.20573 5.4517 3.56334C5.58641 3.21153 5.64374 2.83482 5.6198 2.45887C5.53673 1.12593 4.44403 0.0567589 3.10959 0.00247763C1.60992 -0.0585536 0.375 1.1391 0.375 2.62523C0.375 3.51707 0.820172 4.30452 1.5 4.7789V22.8752C1.5 23.4966 2.00367 24.0002 2.625 24.0002H3.375C3.99633 24.0002 4.5 23.4966 4.5 22.8752V18.4502C5.82708 17.8847 7.48041 17.4133 9.86414 17.4133C12.3761 17.4133 14.4506 19.0437 17.6087 19.0437C19.8666 19.0437 21.6712 18.2799 23.3511 17.1285C23.7581 16.8495 24 16.3864 24 15.893V4.49765C24 3.4011 22.8624 2.67562 21.8679 3.13752C20.2583 3.88509 18.2841 4.63068 16.3859 4.63068V4.63068Z" fill="#C92424"/>
</svg>
