<svg width="20" height="17" viewBox="0 0 20 17" fill="none" xmlns="http://www.w3.org/2000/svg">
<path d="M7.3618 5.27639C7.4465 5.107 7.61963 5 7.80902 5H16C16.2761 5 16.5 5.22386 16.5 5.5V10V11.7929C16.5 11.9255 16.4473 12.0527 16.3536 12.1464L13.6464 14.8536C13.5527 14.9473 13.4255 15 13.2929 15H10H7.70711C7.5745 15 7.44732 14.9473 7.35355 14.8536L5.64645 13.1464C5.55268 13.0527 5.4255 13 5.29289 13H4C3.72386 13 3.5 12.7761 3.5 12.5V10V7.5C3.5 7.22386 3.72386 7 4 7H6.19098C6.38037 7 6.5535 6.893 6.6382 6.72361L7.3618 5.27639Z" fill="#C92424"/>
<rect x="11" y="3.5" width="1" height="1.5" fill="##C92424"/>
<rect x="16.5" y="9" width="1" height="1" transform="rotate(-90 16.5 9)" fill="#C92424"/>
<rect x="2.5" y="10.5" width="1" height="1" transform="rotate(-90 2.5 10.5)" fill="#C92424"/>
<rect x="9" y="3" width="1" height="5" rx="0.2" transform="rotate(-90 9 3)" fill="#C92424"/>
<rect x="1" y="7.5" width="1" height="5" rx="0.2" fill="#C92424"/>
<rect x="18" y="5.5" width="1" height="6" rx="0.2" fill="#C92424"/>
<path d="M9.5 13L10.3333 9L12 10.5385L9.5 13Z" fill="white"/>
<path d="M11.5 7L10.6667 11L9 9.46154L11.5 7Z" fill="white"/>
</svg>
