<svg width="14" height="26" viewBox="0 0 14 26" fill="none" xmlns="http://www.w3.org/2000/svg">
<path d="M8.64758 25.4718H4.69753C4.03774 25.4718 3.50103 24.9359 3.50103 24.2771V15.3815H1.19649C0.53671 15.3815 0 14.8454 0 14.1868V10.375C0 9.71628 0.53671 9.18041 1.19649 9.18041H3.50103V7.27159C3.50103 5.37894 4.09627 3.76869 5.2222 2.6152C6.3532 1.45646 7.93378 0.844116 9.79307 0.844116L12.8056 0.849001C13.4642 0.850129 14 1.386 14 2.04363V5.5828C14 6.24156 13.4635 6.77743 12.8039 6.77743L10.7756 6.77818C10.157 6.77818 9.99952 6.90201 9.96583 6.93996C9.91032 7.0029 9.84426 7.18084 9.84426 7.67218V9.18022H12.6515C12.8628 9.18022 13.0675 9.23227 13.2435 9.33035C13.6231 9.5421 13.859 9.94251 13.859 10.3752L13.8575 14.187C13.8575 14.8454 13.3208 15.3813 12.661 15.3813H9.84426V24.2771C9.84426 24.9359 9.30736 25.4718 8.64758 25.4718ZM4.94707 24.028H8.39804V14.7351C8.39804 14.2953 8.75654 13.9375 9.1969 13.9375H12.4115L12.4128 10.6242H9.19671C8.75635 10.6242 8.39804 10.2664 8.39804 9.82658V7.67218C8.39804 7.10813 8.45544 6.46666 8.88187 5.98452C9.39713 5.40167 10.2092 5.33441 10.7752 5.33441L12.554 5.33365V2.2924L9.79195 2.28789C6.80391 2.28789 4.94707 4.19765 4.94707 7.27159V9.82658C4.94707 10.2662 4.58876 10.6242 4.1484 10.6242H1.44603V13.9375H4.1484C4.58876 13.9375 4.94707 14.2953 4.94707 14.7351V24.028ZM12.8028 2.29278H12.8029H12.8028Z" fill="black"/>
</svg>
