<svg width="22" height="22" viewBox="0 0 22 22" fill="none" xmlns="http://www.w3.org/2000/svg">
<g clip-path="url(#clip0_200_6)">
<path d="M10.3125 6.875H5.5V8.25H10.3125V6.875Z" fill="black"/>
<path d="M19.5348 5.5L16.0973 2.0625L15.125 3.03469L17.1875 5.09719V8.25C17.1879 8.61454 17.3329 8.96404 17.5907 9.22181C17.8485 9.47958 18.198 9.62458 18.5625 9.625V16.8437C18.5625 17.1173 18.4539 17.3796 18.2605 17.573C18.0671 17.7663 17.8048 17.875 17.5312 17.875C17.2577 17.875 16.9954 17.7663 16.802 17.573C16.6086 17.3796 16.5 17.1173 16.5 16.8437V11C16.5 10.8177 16.4276 10.6428 16.2986 10.5139C16.1697 10.3849 15.9948 10.3125 15.8125 10.3125H13.0625V3.4375C13.0625 3.25516 12.9901 3.0803 12.8611 2.95136C12.7322 2.82243 12.5573 2.75 12.375 2.75H3.4375C3.25516 2.75 3.0803 2.82243 2.95136 2.95136C2.82243 3.0803 2.75 3.25516 2.75 3.4375V17.875H1.375V19.25H14.4375V17.875H13.0625V11.6875H15.125V16.775C15.1169 17.3355 15.3013 17.8818 15.6472 18.3228C15.9932 18.7638 16.4799 19.0729 17.0262 19.1985C17.3772 19.273 17.7403 19.2683 18.0892 19.1846C18.4381 19.1009 18.7639 18.9404 19.0429 18.7148C19.3219 18.4891 19.5469 18.2041 19.7017 17.8804C19.8565 17.5567 19.937 17.2025 19.9375 16.8437V6.4724C19.9375 6.29181 19.902 6.11299 19.8329 5.94614C19.7638 5.77929 19.6625 5.62769 19.5348 5.5V5.5ZM11.6875 17.875H4.125V4.125H11.6875V17.875Z" fill="black"/>
</g>
<defs>
<clipPath id="clip0_200_6">
<rect width="22" height="22" fill="white"/>
</clipPath>
</defs>
</svg>
