<svg width="16" height="16" viewBox="0 0 16 16" fill="none" xmlns="http://www.w3.org/2000/svg">
<g clip-path="url(#clip0_43_117)">
<path fill-rule="evenodd" clip-rule="evenodd" d="M7.99249 0L0.221491 6.858C-0.0465088 7.095 -0.0755088 7.509 0.157491 7.782C0.391491 8.055 0.798491 8.084 1.06749 7.847L1.35349 7.595V14.034C1.35349 15.12 2.21949 16 3.28749 16H6.89649V10.726C6.89649 10.093 7.40149 9.58 8.02449 9.58C8.64749 9.58 9.15249 10.093 9.15249 10.726V16H12.6975C13.7655 16 14.6315 15.12 14.6315 14.034V7.595L14.9175 7.847C15.1865 8.085 15.5935 8.055 15.8275 7.782C16.0605 7.509 16.0315 7.095 15.7625 6.858L7.99249 0ZM13.3425 14.034C13.3425 14.396 13.0535 14.69 12.6975 14.69H10.4415V10.726C10.4415 9.37 9.35949 8.27 8.02449 8.27C6.68949 8.27 5.60749 9.37 5.60749 10.726V14.69H3.28749C2.93149 14.69 2.64249 14.396 2.64249 14.034V6.457L7.99249 1.735L13.3425 6.457V14.034Z" fill="#F6F6F6"/>
</g>
<defs>
<clipPath id="clip0_43_117">
<rect width="16" height="16" fill="white"/>
</clipPath>
</defs>
</svg>
