<svg width="130" height="50" viewBox="0 0 130 50" fill="none" xmlns="http://www.w3.org/2000/svg">
<g clip-path="url(#clip0_133_5)">
<path d="M1.88426 46.4645L0.981482 47.4028V49.8981H0V42.5123H0.973765V46.1651L4.25463 42.5123H5.43364L2.52623 45.7747L5.66049 49.8981H4.49383L1.88426 46.4645Z" fill="white"/>
<path d="M12.7114 46.4506C12.7258 47.1005 12.6016 47.7459 12.3472 48.3441C12.1316 48.8489 11.7713 49.2785 11.3117 49.5787C10.9662 49.8024 10.5765 49.9488 10.1691 50.0079C9.76175 50.067 9.34643 50.0373 8.9516 49.921C8.55677 49.8046 8.19176 49.6043 7.88155 49.3337C7.57135 49.0631 7.32328 48.7287 7.15434 48.3534C6.89598 47.7754 6.76543 47.1485 6.77163 46.5154V45.9815C6.7589 45.3351 6.88521 44.6936 7.142 44.1003C7.35468 43.5905 7.71651 43.1569 8.18001 42.8565C8.64351 42.556 9.18703 42.4027 9.73922 42.4166C10.2886 42.405 10.8297 42.5518 11.2979 42.8395C11.7625 43.1401 12.1259 43.5735 12.3411 44.0833C12.5947 44.6817 12.7189 45.327 12.7053 45.9768L12.7114 46.4506ZM11.7423 45.9737C11.7423 45.0972 11.5669 44.4249 11.2161 43.9568C11.0461 43.7278 10.8226 43.5441 10.5651 43.4217C10.3076 43.2992 10.024 43.2419 9.73922 43.2546C9.458 43.2441 9.17849 43.3026 8.92509 43.425C8.67168 43.5474 8.4521 43.73 8.28551 43.9568C7.92749 44.4218 7.74848 45.0699 7.74848 45.9012V46.4506C7.74848 47.2994 7.92698 47.9681 8.28397 48.4568C8.45673 48.6792 8.67735 48.8599 8.92947 48.9855C9.18159 49.1111 9.45874 49.1783 9.74037 49.1821C10.022 49.186 10.3009 49.1264 10.5563 49.0078C10.8118 48.8891 11.0373 48.7145 11.2161 48.4969C11.5618 48.038 11.7392 47.3812 11.7485 46.5262L11.7423 45.9737Z" fill="white"/>
<path d="M17.5571 46.9136H15.8225V49.9012H14.8472V42.5123H17.2932C18.1255 42.5123 18.7654 42.7016 19.213 43.0802C19.6605 43.4588 19.8843 44.0103 19.8843 44.7346C19.8938 45.165 19.7632 45.5868 19.5124 45.9367C19.2508 46.2911 18.8899 46.5596 18.4753 46.7083L20.2053 49.8457V49.9059H19.1682L17.5571 46.9136ZM15.8225 46.1173H17.3164C17.7342 46.1388 18.1453 46.0052 18.4707 45.7423C18.6126 45.6167 18.7247 45.4612 18.7989 45.2868C18.8732 45.1125 18.9076 44.9238 18.8997 44.7346C18.9123 44.5402 18.8823 44.3453 18.8116 44.1638C18.741 43.9822 18.6315 43.8183 18.4907 43.6836C18.2191 43.4398 17.8261 43.3158 17.3117 43.3117H15.821L15.8225 46.1173Z" fill="white"/>
<path d="M26.0941 46.4845H22.8935V49.108H26.6126V49.9043H21.9197V42.5123H26.5617V43.3086H22.8935V45.6883H26.0941V46.4845Z" fill="white"/>
<path d="M32.5787 47.966H29.4923L28.7963 49.8981H27.7917L30.6127 42.5123H31.4645L34.2901 49.8981H33.2917L32.5787 47.966ZM29.7778 47.1697H32.2855L31.0278 43.7145L29.7778 47.1697Z" fill="white"/>
<path d="M41.6281 49.8981H40.6497L36.9305 44.2068V49.8981H35.9521V42.5123H36.9305L40.6589 48.2222V42.5123H41.6281V49.8981Z" fill="white"/>
<path d="M52.7129 47.5555C52.6214 48.3364 52.3333 48.9388 51.8487 49.3626C51.3642 49.7865 50.7191 49.999 49.9136 50C49.5153 50.0145 49.119 49.9374 48.7551 49.7747C48.3913 49.6121 48.0696 49.3682 47.8148 49.0617C47.2901 48.4352 47.0272 47.5982 47.0262 46.5509V45.841C47.0134 45.2173 47.1394 44.5984 47.395 44.0293C47.617 43.536 47.9793 43.119 48.4367 42.8302C48.9076 42.5455 49.4498 42.4004 50 42.412C50.7839 42.412 51.4125 42.6306 51.8858 43.0679C52.359 43.5051 52.6348 44.1116 52.7129 44.8873H51.7299C51.6456 44.2958 51.4619 43.8683 51.179 43.6049C50.8966 43.3395 50.5015 43.2083 49.9954 43.2083C49.7137 43.1963 49.4333 43.2528 49.1782 43.373C48.9231 43.4931 48.701 43.6733 48.5308 43.8981C48.1769 44.358 48.0005 45.0128 48.0015 45.8626V46.5787C48.0015 47.3812 48.1687 48.019 48.5031 48.4923C48.6578 48.7203 48.8681 48.9053 49.114 49.0298C49.3599 49.1542 49.6335 49.2141 49.9089 49.2037C50.4491 49.2037 50.8642 49.0802 51.1543 48.8364C51.4444 48.5926 51.6342 48.1636 51.7299 47.5555H52.7129Z" fill="white"/>
<path d="M58.7963 47.966H55.7022L55.0062 49.8981H54.0031L56.8226 42.5123H57.6744L60.5 49.8981H59.5016L58.7963 47.966ZM55.9954 47.1697H58.5062L57.2485 43.7145L55.9954 47.1697Z" fill="white"/>
<path d="M64.8781 46.9136H63.1497V49.9012H62.1713V42.5123H64.6157C65.448 42.5123 66.0879 42.7016 66.5355 43.0802C66.983 43.4588 67.2073 44.0103 67.2083 44.7346C67.2173 45.1652 67.0863 45.587 66.8348 45.9367C66.5733 46.2911 66.2124 46.5596 65.7978 46.7083L67.5262 49.8457V49.9059H66.4814L64.8781 46.9136ZM63.1497 46.1142H64.6466C65.0644 46.1357 65.4755 46.0022 65.8009 45.7392C65.9425 45.6135 66.0544 45.4579 66.1283 45.2836C66.2022 45.1092 66.2364 44.9206 66.2284 44.7315C66.2409 44.5372 66.2109 44.3426 66.1406 44.1611C66.0702 43.9796 65.9611 43.8156 65.821 43.6805C65.5478 43.4367 65.1558 43.3133 64.6419 43.3086H63.1497V46.1142Z" fill="white"/>
<path d="M71.4182 46.6049C70.5818 46.3642 69.9753 46.0694 69.5941 45.7191C69.4108 45.5576 69.2648 45.3582 69.1662 45.1346C69.0676 44.911 69.0188 44.6687 69.0231 44.4244C69.0192 44.146 69.0802 43.8705 69.2012 43.6197C69.3223 43.369 69.5002 43.1499 69.7207 42.9799C70.1847 42.6003 70.7891 42.4105 71.534 42.4105C72.0032 42.4019 72.4681 42.5022 72.892 42.7037C73.2702 42.8827 73.5909 43.1638 73.8179 43.5154C74.0335 43.8531 74.1471 44.2459 74.1451 44.6466H73.1651C73.1753 44.4503 73.1424 44.2541 73.0688 44.0717C72.9953 43.8894 72.8828 43.7254 72.7392 43.591C72.4553 43.3349 72.0556 43.2068 71.537 43.2068C71.0566 43.2068 70.6821 43.3097 70.4136 43.5154C70.2812 43.62 70.1757 43.7547 70.1056 43.9082C70.0356 44.0617 70.0031 44.2296 70.0108 44.3981C70.0095 44.5478 70.0434 44.6956 70.1099 44.8297C70.1764 44.9638 70.2736 45.0803 70.3935 45.1697C70.6497 45.3755 71.0844 45.5663 71.6975 45.7423C72.2001 45.8696 72.6841 46.0616 73.1373 46.3133C73.4507 46.4887 73.7157 46.7389 73.9089 47.0417C74.0814 47.3384 74.1685 47.677 74.1605 48.02C74.1686 48.2986 74.1092 48.5749 73.9872 48.8254C73.8651 49.0759 73.6842 49.2931 73.4599 49.4583C72.9938 49.8184 72.3699 49.9984 71.588 49.9984C71.0995 50.0023 70.6156 49.9029 70.1682 49.7068C69.7621 49.539 69.4102 49.2624 69.1512 48.9074C68.9129 48.5713 68.7876 48.1682 68.7932 47.7562H69.7716C69.7636 47.9591 69.8044 48.1611 69.8906 48.345C69.9768 48.5289 70.1059 48.6895 70.267 48.8133C70.6504 49.0891 71.1163 49.2262 71.588 49.2022C72.1019 49.2022 72.4969 49.0972 72.7701 48.8935C72.9029 48.7948 73.0097 48.6653 73.0813 48.516C73.1528 48.3668 73.1869 48.2024 73.1806 48.037C73.1891 47.8769 73.1591 47.7171 73.093 47.571C73.0269 47.4249 72.9268 47.2969 72.8009 47.1975C72.5396 46.9959 72.0787 46.7983 71.4182 46.6049Z" fill="white"/>
<path d="M79.3271 49.8982V42.5123H81.412C82.0056 42.5015 82.5914 42.6485 83.1096 42.9383C83.6022 43.2212 84.0005 43.6431 84.2546 44.1512C84.5315 44.7123 84.6712 45.3312 84.662 45.9568V46.429C84.676 47.063 84.5379 47.6911 84.2592 48.2608C84.0049 48.7692 83.6038 49.1896 83.108 49.4676C82.5735 49.7575 81.9737 49.9057 81.3657 49.8982H79.3271ZM80.3009 43.3086V49.1018H81.3256C82.0777 49.1018 82.662 48.8683 83.0787 48.4012C83.4954 47.9383 83.7052 47.2685 83.7052 46.4059V45.9753C83.7052 45.1358 83.5082 44.483 83.1142 44.017C82.7201 43.5509 82.161 43.3148 81.4367 43.3086H80.3009Z" fill="white"/>
<path d="M90.9892 46.4845H87.7886V49.108H91.5077V49.9043H86.8148V42.5123H91.4568V43.3086H87.7886V45.6883H90.9892V46.4845Z" fill="white"/>
<path d="M94.3735 49.1018H97.8719V49.8981H93.3966V42.5123H94.375L94.3735 49.1018Z" fill="white"/>
<path d="M100.705 49.8981H99.7315V42.5123H100.705V49.8981Z" fill="white"/>
<path d="M105.606 48.6111L107.716 42.5185H108.781L106.042 49.9043H105.179L102.446 42.5185H103.506L105.606 48.6111Z" fill="white"/>
<path d="M114.62 46.4845H111.42V49.108H115.137V49.9043H110.446V42.5123H115.086V43.3086H111.42V45.6883H114.62V46.4845Z" fill="white"/>
<path d="M119.735 46.9136H118V49.9012H117.02V42.5123H119.466C120.298 42.5123 120.938 42.7016 121.386 43.0802C121.833 43.4588 122.057 44.0103 122.057 44.7346C122.067 45.165 121.936 45.5868 121.685 45.9367C121.423 46.2914 121.062 46.5601 120.647 46.7083L122.383 49.8457V49.9059H121.338L119.735 46.9136ZM118 46.1173H119.495C119.913 46.1388 120.324 46.0052 120.65 45.7423C120.792 45.6167 120.904 45.4612 120.978 45.2868C121.052 45.1125 121.087 44.9238 121.079 44.7346C121.091 44.5402 121.061 44.3453 120.991 44.1638C120.92 43.9822 120.81 43.8183 120.67 43.6836C120.398 43.4398 120.005 43.3158 119.491 43.3117H118V46.1173Z" fill="white"/>
<path d="M126.113 46.2207L128.04 42.517H129.145L126.599 47.1466V49.9012H125.619V47.1435L123.073 42.5139H124.188L126.113 46.2207Z" fill="white"/>
<path d="M104.738 10.6775H95.8071C96.0676 11.5871 96.2701 12.5123 96.4136 13.4475H104.284L104.738 10.6775Z" fill="#CB2A37"/>
<path d="M103.699 17.3148C103.872 16.4491 104.045 15.5247 104.045 14.6589H95.588C95.6821 15.5617 95.4537 16.4876 95.4491 17.429H103.526L103.699 17.3148Z" fill="#CB2A37"/>
<path d="M103.352 18.6991H96.6636C96.614 19.6267 96.5172 20.5513 96.3735 21.4691H102.89L103.352 18.6991Z" fill="#CB2A37"/>
<path d="M102.656 22.6852H94.6312C94.537 23.1481 94.4367 23.5988 94.3225 24.0741C94.2083 24.5494 95.5972 25.0123 95.4614 25.463H102.137C102.372 24.5864 102.656 23.6111 102.656 22.6852Z" fill="#CB2A37"/>
<path d="M94.7731 7.87036C95.0283 8.4218 95.2582 8.99279 95.4629 9.58333H128.69L127.477 6.81326H94.7191C94.8245 7.1557 94.8431 7.51897 94.7731 7.87036V7.87036Z" fill="#CB2A37"/>
<path d="M115.704 13.4475H129.324C129.324 12.7546 129.267 12.1204 129.208 11.4275C129.151 11.3704 129.093 10.6775 128.978 10.6775H113.855C114.838 11.5432 115.242 12.2361 115.704 13.4475Z" fill="#CB2A37"/>
<path d="M89.446 1.55864H120.955C118.531 0.34568 115.588 0 112.931 0H93.4861H81.8364C82.1682 0.0509259 85.9367 0.112656 86.2654 0.194446C87.3899 0.481583 88.4629 0.941812 89.446 1.55864Z" fill="#CB2A37"/>
<path d="M93.2145 2.77777H92.3056L92.2438 3.10185L92.6682 3.47684L92.8951 3.3611L92.7407 4.10493H92.392C92.6728 4.43209 92.9429 4.77314 93.1991 5.13117C93.4169 5.25124 93.6235 5.39069 93.8164 5.54783H126.687L123.446 2.77777H93.2145Z" fill="#CB2A37"/>
<path d="M115.761 18.9305C115.531 19.5077 115.415 20.7824 115.415 21.4691H128.401C128.864 20.7778 129.093 19.5077 129.093 18.6991H115.877C115.819 18.6991 115.761 18.8719 115.761 18.9305Z" fill="#CB2A37"/>
<path d="M129.381 14.6605H116.049V17.4306H129.151C129.44 16.5633 129.381 15.5864 129.381 14.6605Z" fill="#CB2A37"/>
<path d="M93.7284 29.321H101.506C101.679 28.4167 101.969 27.4537 101.969 26.5432H95.1065C94.7855 27.5062 94.1281 28.4306 93.7284 29.321Z" fill="#CB2A37"/>
<path d="M113.857 25.4522H127.304C127.767 25.4522 128.17 23.0864 128.17 22.6821H115.011L113.857 25.4522Z" fill="#CB2A37"/>
<path d="M82.8812 39.1543L81.6281 39.179C80.6342 39.7407 75.1296 40.1528 74.088 40.4583C75.4614 40.466 85.0077 40.4583 86.3842 40.4583H105.66C108.956 40.4222 112.212 39.7357 115.242 38.4383H85.2376L82.8812 39.1543Z" fill="#CB2A37"/>
<path d="M110.798 29.2037H125.573C125.918 29.2037 126.843 26.9522 126.843 26.5479H113.395L110.798 29.2037Z" fill="#CB2A37"/>
<path d="M86.5154 37.2253H117.724C118.994 37.2253 120.667 35.4938 121.417 34.571H89.4383C88.6219 35.5571 87.4352 36.4475 86.5154 37.2253Z" fill="#CB2A37"/>
<path d="M122.045 30.588H92.4151C91.9256 31.4836 91.3824 32.3489 90.7886 33.179H122.802L124.823 30.5818C123.897 30.5818 122.961 30.5926 122.026 30.608L122.045 30.588Z" fill="#CB2A37"/>
<path d="M55.6219 14.6605L54.5417 15.1867C55.0756 15.821 55.7068 16.6173 56.0849 17.4306H70.1651C70.468 16.4759 70.8526 15.5491 71.3148 14.6605H55.6219Z" fill="white"/>
<path d="M84.0833 11.0201C84.6059 11.7643 85.0143 12.5825 85.2947 13.4475H96.9228L96.6281 10.6775H84.0463C84.0465 10.7926 84.0589 10.9075 84.0833 11.0201V11.0201Z" fill="white"/>
<path d="M80.9089 8.68518C81.5546 8.87117 82.1604 9.17459 82.696 9.58024H96.4552L95.7623 6.81018H64.5663C63.2515 7.74845 62.2114 8.44907 61.5077 9.58024H75.8179C77.4645 8.57407 79.2392 8.20678 80.9089 8.68518Z" fill="white"/>
<path d="M58.4367 22.6852C58.6342 23.0694 58.5108 23.5324 58.4953 23.9784C58.4953 24.1188 58.4444 24.4167 58.5586 24.5447C58.7556 24.6127 58.9566 24.6684 59.1605 24.7114C59.3205 24.7529 59.4599 24.8513 59.5525 24.9883C59.6452 25.1252 59.6846 25.2913 59.6636 25.4552H69.5987C69.4158 24.5432 69.3233 23.6154 69.3225 22.6852H58.4367Z" fill="white"/>
<path d="M92.8179 2.77777H69.1836C69.1451 2.94135 68.6698 3.09567 68.4784 3.2037C68.0895 3.42592 67.7469 3.85648 67.3812 4.12962C66.9574 4.43248 66.5809 4.79652 66.2639 5.20987C66.162 5.34567 66.2377 5.45216 66.125 5.54321H95.0108C94.6651 4.87808 93.5679 2.77777 92.8179 2.77777Z" fill="white"/>
<path d="M60.2392 26.5432C60.3657 26.6975 60.321 26.9074 60.2639 27.1605C60.2256 27.3322 60.1583 27.4961 60.0648 27.6451C60.2306 27.6986 60.3728 27.8076 60.4676 27.9537C60.5261 28.053 60.5594 28.165 60.5648 28.2801C60.5702 28.3952 60.5474 28.5099 60.4985 28.6142C60.608 28.6296 60.7176 28.6435 60.8303 28.6559C61.2269 28.696 61.5694 28.9907 61.6235 29.304H70.7716C70.7544 28.8628 70.6495 28.4295 70.463 28.0293C70.2303 27.5465 70.0363 27.0459 69.8827 26.5324L60.2392 26.5432Z" fill="white"/>
<path d="M96.75 17.429L96.9228 14.6605H85.6805C85.7289 15.5679 85.7695 16.4913 85.8025 17.4306L96.75 17.429Z" fill="white"/>
<path d="M81.3472 29.1898C81.3382 29.2324 81.3335 29.2759 81.3333 29.3194H93.9722C94.4352 28.4568 94.7222 27.4105 95.1852 26.5417H83.4166C82.8368 27.505 82.1419 28.3943 81.3472 29.1898V29.1898Z" fill="white"/>
<path d="M95.4738 25.4522L96.1049 22.6852H85.0633C84.9768 23.6235 84.2407 24.5463 84.1481 25.4552L95.4738 25.4522Z" fill="white"/>
<path d="M74.5232 40.4583C78.5047 40.4583 82.5479 39.8642 85.9429 38.4383H65.9059C65.9269 38.4746 65.9454 38.5122 65.9614 38.5509C66.0849 38.8596 66.1574 39.2114 66.3087 39.4969C66.4784 39.8163 66.7531 40.0864 66.9259 40.4059C66.9259 40.4167 66.9352 40.429 66.9414 40.4398L66.9908 40.4583H73.5988" fill="white"/>
<path d="M64.1605 35.2639C63.9614 35.7268 64.6682 36.5386 65.0339 36.7917C65.2052 36.9089 65.3951 37.0633 65.4321 37.2253H87.6867C88.7253 36.5463 89.6481 35.4969 90.4568 34.571H64.2222C64.3272 34.7762 64.2623 35.0309 64.1605 35.2639Z" fill="white"/>
<path d="M74.3503 31.5941C73.6789 31.4015 73.0504 31.0825 72.4985 30.6543C72.3269 30.614 72.1515 30.5917 71.9753 30.588H62.2531C62.3076 30.7508 62.2988 30.9282 62.2284 31.0849C62.213 31.1358 62.1991 31.1806 62.1837 31.2222C62.2826 31.4438 62.3965 31.6582 62.5247 31.8642C62.6651 32.0849 62.8411 32.2793 62.9661 32.5093C62.9924 32.5582 63.0131 32.61 63.0278 32.6636L63.0756 32.6929C63.2762 32.8225 63.4954 33.0016 63.5216 33.1852H91.4846L93.2732 30.588H79.8904C79.7137 30.6213 79.541 30.673 79.375 30.7423C77.7469 31.7161 75.9969 32.0664 74.3503 31.5941Z" fill="white"/>
<path d="M56.4213 18.6991C56.5972 19.125 56.7669 19.5355 56.9352 19.9074C57.1669 20.414 57.3638 20.9358 57.5247 21.4691H69.3703C69.4413 20.5354 69.5878 19.609 69.8086 18.6991H56.4213Z" fill="white"/>
<path d="M70.6266 1.55864H91.2022C89.8719 0.09568 83.6404 0.00462963 80.9012 0H72.4738L72.1435 0.0709863C72.1096 0.161616 72.052 0.241531 71.9769 0.302468C71.6173 0.591048 71.2161 0.888888 70.7531 0.987653H70.7377C70.7377 1.0108 70.7377 1.03086 70.7284 1.03549C70.6962 1.21006 70.6129 1.37116 70.4892 1.49846C70.4722 1.52006 70.6466 1.54321 70.6266 1.55864Z" fill="white"/>
<path d="M74.3518 10.6775H60.1235C60.1235 10.7886 59.4954 10.9043 59.4228 11.0231C59.0972 11.5586 58.6697 11.6728 58.2099 12.0509C57.7022 12.4676 57.4753 12.9969 57.0062 13.4475H72.0216C72.6694 12.423 73.4533 11.4911 74.3518 10.6775V10.6775Z" fill="white"/>
<path d="M11.1821 39.1296H25.1482V38.4383H38.48C38.4229 38.784 38.3071 40.2269 38.017 40.4583H0.0432185C-0.0154235 40.2269 0.157416 39.9383 0.216058 39.7654H10.8349L11.1821 39.1296ZM11.7006 35.8982H25.4954L25.9583 34.571H39.1173L38.6543 37.2253H0.734577C0.734577 36.9954 0.793219 36.6481 0.966059 36.5324H11.7006V35.8982ZM12.2238 32.6667L12.5695 32.0309H26.304L26.5926 30.588H39.8642L39.4012 33.1852H1.5926V32.6667H12.2238ZM13.3195 27.8827H27.054L27.4012 26.554H40.5571L40.0386 29.3318H2.12038L2.34723 28.5108H13.0247C13.0239 28.3902 13.0497 28.2709 13.1001 28.1613C13.1505 28.0517 13.2243 27.9545 13.3164 27.8765L13.3195 27.8827ZM13.608 24.7654L13.9553 24.1883H27.6898L27.9784 22.8611L28.1497 22.6852H58.5648L59.892 25.4553H2.98612V24.7623L13.608 24.7654ZM14.7053 19.9815H28.4398L28.7855 18.7114H56.5448L57.9337 21.4815H3.50464L3.73612 20.6157H14.4136L14.7053 19.9815ZM15.2824 16.6343V15.9985H29.0756L29.5386 14.6713H55.6219L55.159 15.3071C55.0448 15.537 55.9676 17.159 56.0849 17.4414H4.37038V16.6343H15.2824ZM15.8596 12.1327H29.8164L30.1636 10.6898H43.2639L43.0911 12.5941C43.0911 12.6512 43.034 12.8256 43.0911 12.8256C43.4367 12.8256 45.2269 10.9738 45.5725 10.6898H60.1173V10.8056L57 13.4599H4.99384L5.10958 12.767H15.8441L15.8596 12.1327ZM16.4367 8.89198L16.7253 8.25772H30.4599L30.9229 6.81482H44.0139C44.0725 7.16049 43.6111 9.12963 43.5509 9.58488H5.74229V8.89198H16.4367ZM17.4753 4.10802H31.2099L31.5556 2.78086H44.7145L44.196 5.55093H6.38736L6.5031 4.74383H17.1806L17.4753 4.10802ZM18.0525 0.876542V0.231481H31.8457L32.0185 0H45.2901C45.2289 0.530488 45.1115 1.05297 44.9398 1.55864H7.13118V0.865739L18.0525 0.876542ZM60.2377 26.5432C60.4692 26.659 61.6266 28.9105 61.6266 29.321H46.3874C45.8102 28.5694 45.4614 27.4151 45.1173 26.5432H60.2377ZM61.5077 9.57562H46.8472C47.7225 8.56605 48.6885 7.63882 49.733 6.80556H64.5648L61.5077 9.57562ZM62.2577 30.5833L63.5278 33.179H48.0602C47.5417 32.5448 47.1945 31.3272 46.8488 30.5818L62.2577 30.5833ZM48.5232 34.5664H64.2207L65.4321 37.2207H49.6775L48.5232 34.5664ZM65.9522 38.4336L66.9908 40.4537H51.1204L50.1945 38.4336H65.9522ZM66.125 5.53549H51.1204C52.0463 4.60957 53.0247 3.57408 54.0633 2.76543H69.1867L66.125 5.53549ZM70.6266 1.55401H55.3333L57.0062 0H72.4738L70.6266 1.55401Z" fill="#CB2A37"/>
</g>
<defs>
<clipPath id="clip0_133_5">
<rect width="129.387" height="50" fill="white"/>
</clipPath>
</defs>
</svg>
