<svg width="22" height="22" viewBox="0 0 22 22" fill="none" xmlns="http://www.w3.org/2000/svg">
<g clip-path="url(#clip0_200_17)">
<path d="M17.875 11C17.8751 9.8938 17.6063 8.80419 17.0918 7.82495L16.0632 8.85352C16.3522 9.53219 16.5008 10.2623 16.5 11H17.875Z" fill="black"/>
<path d="M16.0972 6.87503L15.125 5.90283L11.8836 9.14419C11.6084 9.0098 11.3063 8.93916 11 8.93753C10.5921 8.93753 10.1933 9.05849 9.85414 9.28512C9.51496 9.51175 9.25061 9.83387 9.0945 10.2107C8.93839 10.5876 8.89755 11.0023 8.97713 11.4024C9.05671 11.8025 9.25315 12.17 9.54159 12.4584C9.83004 12.7469 10.1975 12.9433 10.5976 13.0229C10.9977 13.1025 11.4124 13.0616 11.7893 12.9055C12.1662 12.7494 12.4883 12.4851 12.7149 12.1459C12.9415 11.8067 13.0625 11.4079 13.0625 11C13.0609 10.6937 12.9902 10.3917 12.8558 10.1164L16.0972 6.87503ZM11 11.6875C10.864 11.6875 10.7311 11.6472 10.618 11.5717C10.505 11.4961 10.4169 11.3887 10.3648 11.2631C10.3128 11.1375 10.2992 10.9993 10.3257 10.8659C10.3522 10.7325 10.4177 10.61 10.5139 10.5139C10.61 10.4177 10.7325 10.3523 10.8659 10.3257C10.9992 10.2992 11.1375 10.3128 11.2631 10.3649C11.3887 10.4169 11.4961 10.505 11.5716 10.6181C11.6472 10.7311 11.6875 10.8641 11.6875 11C11.6873 11.1823 11.6148 11.357 11.4859 11.4859C11.357 11.6148 11.1823 11.6873 11 11.6875Z" fill="black"/>
<path d="M11 5.50001C11.7377 5.49928 12.4679 5.64785 13.1466 5.93678L14.1752 4.90821C13.128 4.35999 11.9571 4.09137 10.7758 4.12836C9.5944 4.16536 8.44259 4.50671 7.43183 5.11937C6.42107 5.73203 5.58559 6.59526 5.00627 7.62549C4.42694 8.65572 4.12339 9.81807 4.12501 11H5.50001C5.50168 9.54183 6.08168 8.14386 7.11277 7.11277C8.14386 6.08169 9.54183 5.50169 11 5.50001V5.50001Z" fill="black"/>
<path d="M11 20.625C9.09636 20.625 7.23546 20.0605 5.65264 19.0029C4.06982 17.9453 2.83616 16.4421 2.10766 14.6833C1.37917 12.9246 1.18856 10.9893 1.55995 9.12226C1.93133 7.25519 2.84802 5.54018 4.1941 4.1941C5.54018 2.84802 7.25519 1.93133 9.12226 1.55995C10.9893 1.18856 12.9246 1.37917 14.6833 2.10766C16.4421 2.83616 17.9453 4.06982 19.0029 5.65264C20.0605 7.23546 20.625 9.09636 20.625 11C20.6221 13.5518 19.6071 15.9983 17.8027 17.8027C15.9983 19.6071 13.5518 20.6221 11 20.625V20.625ZM11 2.75C9.36831 2.75 7.77326 3.23386 6.41655 4.14038C5.05984 5.0469 4.00242 6.33538 3.378 7.84287C2.75358 9.35036 2.5902 11.0092 2.90853 12.6095C3.22685 14.2098 4.01259 15.6799 5.16637 16.8336C6.32016 17.9874 7.79017 18.7732 9.39051 19.0915C10.9909 19.4098 12.6497 19.2464 14.1571 18.622C15.6646 17.9976 16.9531 16.9402 17.8596 15.5835C18.7661 14.2268 19.25 12.6317 19.25 11C19.2475 8.81273 18.3775 6.71576 16.8309 5.16913C15.2842 3.62249 13.1873 2.7525 11 2.75V2.75Z" fill="black"/>
</g>
<defs>
<clipPath id="clip0_200_17">
<rect width="22" height="22" fill="white"/>
</clipPath>
</defs>
</svg>
