<svg width="80" height="56" viewBox="0 0 80 56" fill="none" xmlns="http://www.w3.org/2000/svg">
<path fill-rule="evenodd" clip-rule="evenodd" d="M0.372 16.108C0.872 8.344 6.888 2.072 14.62 1.244C22.64 0.436001 31.164 0 40 0C48.836 0 57.36 0.436001 65.38 1.248C73.112 2.072 79.128 8.344 79.628 16.108C79.872 19.932 80 23.84 80 27.808C80 31.776 79.872 35.684 79.628 39.508C79.128 47.272 73.112 53.544 65.38 54.372C57.36 55.18 48.836 55.616 40 55.616C31.164 55.616 22.64 55.18 14.62 54.368C6.888 53.544 0.872 47.272 0.372 39.508C0.128 35.684 0 31.776 0 27.808C0 23.84 0.128 19.932 0.372 16.108V16.108Z" fill="#FF0000"/>
<path fill-rule="evenodd" clip-rule="evenodd" d="M52.22 27.808L32.584 39.788V15.828L52.22 27.808Z" fill="white"/>
</svg>
