<svg width="300" height="116" viewBox="0 0 300 116" fill="none" xmlns="http://www.w3.org/2000/svg">
<path d="M242.847 24.757H222.14C222.744 26.8661 223.214 29.0113 223.546 31.1797H241.795L242.847 24.757Z" fill="white"/>
<path d="M240.439 40.1465C240.839 38.1391 241.24 35.9958 241.24 33.9885H221.632C221.85 36.0817 221.321 38.2286 221.31 40.4112H240.038L240.439 40.1465Z" fill="white"/>
<path d="M239.633 43.356H224.126C224.011 45.507 223.786 47.6507 223.453 49.7787H238.564L239.633 43.356Z" fill="white"/>
<path d="M238.02 52.5983H219.414C219.195 53.6717 218.963 54.7165 218.698 55.8186C218.433 56.9207 221.654 57.9941 221.339 59.0389H236.818C237.362 57.0065 238.02 54.7452 238.02 52.5983Z" fill="white"/>
<path d="M219.743 18.2484C220.334 19.527 220.868 20.8509 221.342 22.2201H298.383L295.57 15.7974H219.618C219.862 16.5914 219.905 17.4336 219.743 18.2484Z" fill="white"/>
<path d="M268.273 31.1797H299.853C299.853 29.5731 299.721 28.1025 299.585 26.4959C299.453 26.3636 299.317 24.757 299.052 24.757H263.986C266.266 26.7643 267.203 28.3709 268.273 31.1797Z" fill="white"/>
<path d="M207.391 3.6139H280.449C274.828 0.8015 268.005 0 261.843 0H216.759H189.748C190.517 0.118078 199.255 0.261206 200.017 0.450846C202.624 1.11661 205.112 2.1837 207.391 3.6139Z" fill="white"/>
<path d="M216.129 6.44061H214.022L213.878 7.19202L214.862 8.0615L215.388 7.79314L215.031 9.51779H214.222C214.873 10.2764 215.499 11.0671 216.093 11.8972C216.598 12.1756 217.077 12.499 217.524 12.8633H293.738L286.224 6.44061H216.129Z" fill="white"/>
<path d="M268.405 43.8928C267.872 45.231 267.604 48.1865 267.604 49.7787H297.713C298.787 48.1757 299.316 45.231 299.316 43.356H268.673C268.541 43.356 268.405 43.7568 268.405 43.8928Z" fill="white"/>
<path d="M299.986 33.9921H269.074V40.4148H299.452C300.122 38.4039 299.986 36.139 299.986 33.9921Z" fill="white"/>
<path d="M217.32 67.9842H235.354C235.755 65.8874 236.427 63.6547 236.427 61.5436H220.516C219.771 63.7763 218.247 65.9196 217.32 67.9842Z" fill="white"/>
<path d="M263.99 59.0139H295.169C296.243 59.0139 297.177 53.5286 297.177 52.5912H266.666L263.99 59.0139Z" fill="white"/>
<path d="M192.17 90.7839L189.264 90.8412C186.96 92.1436 174.197 93.099 171.782 93.8075C174.966 93.8254 197.1 93.8075 200.292 93.8075H244.986C252.628 93.7237 260.178 92.132 267.203 89.1237H197.634L192.17 90.7839Z" fill="white"/>
<path d="M256.898 67.7123H291.155C291.956 67.7123 294.1 62.4918 294.1 61.5543H262.92L256.898 67.7123Z" fill="white"/>
<path d="M200.596 86.3113H272.956C275.901 86.3113 279.78 82.2967 281.519 80.157H207.373C205.48 82.4434 202.729 84.5079 200.596 86.3113Z" fill="white"/>
<path d="M282.975 70.9219H214.275C213.14 72.9985 211.881 75.0047 210.504 76.9295H284.732L289.416 70.9075C287.269 70.9075 285.1 70.9326 282.932 70.9684L282.975 70.9219Z" fill="white"/>
<path d="M128.966 33.9921L126.461 35.2122C127.699 36.6828 129.163 38.5292 130.04 40.4148H162.686C163.388 38.2012 164.28 36.0523 165.352 33.9921H128.966Z" fill="black"/>
<path d="M194.957 25.5513C196.169 27.2769 197.116 29.174 197.766 31.1797H224.727L224.044 24.757H194.872C194.872 25.0241 194.901 25.2903 194.957 25.5513Z" fill="black"/>
<path d="M187.597 20.1376C189.094 20.5689 190.498 21.2724 191.74 22.2129H223.643L222.036 15.7902H149.705C146.656 17.9657 144.244 19.5902 142.613 22.2129H175.793C179.611 19.88 183.725 19.0284 187.597 20.1376Z" fill="black"/>
<path d="M135.493 52.5983C135.951 53.4892 135.664 54.5627 135.629 55.5968C135.629 55.9224 135.511 56.6129 135.775 56.9099C136.232 57.0675 136.698 57.1966 137.171 57.2964C137.542 57.3926 137.865 57.6208 138.08 57.9383C138.295 58.2559 138.386 58.6408 138.337 59.021H161.373C160.949 56.9064 160.735 54.7551 160.733 52.5983H135.493Z" fill="black"/>
<path d="M215.21 6.44061H160.411C160.321 6.81989 159.219 7.17771 158.775 7.42818C157.874 7.94343 157.079 8.94172 156.231 9.57505C155.249 10.2772 154.376 11.1213 153.641 12.0797C153.405 12.3946 153.58 12.6415 153.319 12.8526H220.294C219.493 11.3104 216.948 6.44061 215.21 6.44061Z" fill="black"/>
<path d="M139.672 61.5436C139.965 61.9014 139.862 62.388 139.729 62.9749C139.64 63.3729 139.484 63.7529 139.268 64.0984C139.652 64.2225 139.982 64.4752 140.201 64.814C140.337 65.0442 140.414 65.304 140.427 65.5709C140.439 65.8377 140.387 66.1036 140.273 66.3454C140.527 66.3812 140.781 66.4134 141.042 66.442C141.962 66.5351 142.756 67.2185 142.881 67.9449H164.093C164.053 66.9219 163.809 65.9172 163.377 64.9893C162.838 63.8697 162.388 62.7092 162.032 61.5186L139.672 61.5436Z" fill="black"/>
<path d="M224.326 40.4112L224.727 33.9921H198.661C198.773 36.096 198.867 38.2369 198.943 40.4148L224.326 40.4112Z" fill="black"/>
<path d="M188.613 67.6801C188.592 67.7789 188.582 67.8796 188.581 67.9806H217.886C218.959 65.9805 219.625 63.5545 220.698 61.54H193.412C192.067 63.7737 190.456 65.8356 188.613 67.6801Z" fill="black"/>
<path d="M221.367 59.0139L222.831 52.5983H197.229C197.029 54.7738 195.322 56.9135 195.107 59.021L221.367 59.0139Z" fill="black"/>
<path d="M172.791 93.8075C182.022 93.8075 191.397 92.4299 199.269 89.1237H152.811C152.859 89.2079 152.902 89.2951 152.939 89.3849C153.226 90.1005 153.394 90.9163 153.744 91.5783C154.138 92.319 154.775 92.9451 155.176 93.6858C155.176 93.7109 155.197 93.7395 155.211 93.7645L155.326 93.8075H170.647" fill="black"/>
<path d="M148.764 81.7635C148.302 82.837 149.941 84.719 150.789 85.3059C151.186 85.5778 151.626 85.9356 151.712 86.3113H203.312C205.72 84.7369 207.86 82.3038 209.735 80.157H148.907C149.15 80.6329 149 81.2232 148.764 81.7635Z" fill="black"/>
<path d="M172.39 73.2548C170.833 72.808 169.376 72.0684 168.096 71.0757C167.698 70.9821 167.292 70.9305 166.883 70.9218H144.341C144.467 71.2995 144.447 71.7108 144.284 72.074C144.248 72.1921 144.216 72.2958 144.18 72.3924C144.41 72.9061 144.674 73.4034 144.971 73.8809C145.297 74.3926 145.704 74.8434 145.994 75.3766C146.055 75.49 146.103 75.6101 146.137 75.7344L146.248 75.8024C146.713 76.1029 147.222 76.518 147.282 76.9438H212.118L216.265 70.9218H185.235C184.826 70.999 184.425 71.119 184.04 71.2797C180.265 73.5374 176.208 74.3497 172.39 73.2548Z" fill="black"/>
<path d="M130.819 43.356C131.227 44.3436 131.621 45.2954 132.011 46.1577C132.548 47.3323 133.005 48.5421 133.378 49.7787H160.843C161.008 47.6139 161.348 45.4659 161.86 43.356H130.819Z" fill="black"/>
<path d="M163.756 3.6139H211.463C208.379 0.221846 193.93 0.0107343 187.579 0H168.039L167.274 0.16459C167.195 0.374725 167.061 0.560019 166.887 0.701308C166.053 1.37042 165.123 2.06099 164.05 2.28999H164.014C164.014 2.34366 164.014 2.39018 163.992 2.40091C163.918 2.80567 163.725 3.17921 163.438 3.47435C163.398 3.52444 163.803 3.57812 163.756 3.6139Z" fill="black"/>
<path d="M172.394 24.757H139.404C139.404 25.0146 137.947 25.283 137.779 25.5585C137.024 26.8001 136.033 27.0649 134.967 27.9415C133.79 28.9076 133.264 30.1349 132.176 31.1797H166.991C168.493 28.8042 170.311 26.6436 172.394 24.757Z" fill="black"/>
<path d="M25.9271 90.7267H58.3091V89.1237H89.2204C89.088 89.9252 88.8197 93.2707 88.147 93.8075H0.10026C-0.0357082 93.2707 0.365042 92.6016 0.50101 92.2009H25.122L25.9271 90.7267ZM27.1294 83.2341H59.1141L60.1876 80.157H90.6982L89.6247 86.3113H1.70326C1.70326 85.7782 1.83923 84.9731 2.23998 84.7047H27.1294V83.2341ZM28.3423 75.7416L29.1438 74.2674H60.9891L61.6582 70.9218H92.43L91.3565 76.9438H3.69269V75.7416H28.3423ZM30.8828 64.6494H62.728L63.5331 61.5686H94.0366L92.8343 68.0093H4.9164L5.44239 66.1057H30.1994C30.1976 65.826 30.2572 65.5494 30.3741 65.2952C30.4909 65.0411 30.6622 64.8158 30.8756 64.6351L30.8828 64.6494ZM31.5519 57.4216L32.357 56.0834H64.2022L64.8713 53.0062L65.2685 52.5983H135.79L138.867 59.021H6.92373V57.4144L31.5519 57.4216ZM34.0959 46.3294H65.9412L66.7427 43.3847H131.106L134.326 49.8074H8.12598L8.66269 47.8H33.4197L34.0959 46.3294ZM35.4342 38.5685V37.0943H67.4154L68.4888 34.0172H128.966L127.893 35.4913C127.628 36.0245 129.768 39.7851 130.04 40.4399H10.1333V38.5685H35.4342ZM36.7724 28.1311H69.1329L69.9379 24.7856H100.313L99.9118 29.201C99.9118 29.3334 99.7794 29.7377 99.9118 29.7377C100.713 29.7377 104.864 25.444 105.665 24.7856H139.389V25.054L132.161 31.2083H11.5789L11.8472 29.6018H36.7366L36.7724 28.1311ZM38.1106 20.6171L38.7797 19.1465H70.6249L71.6984 15.801H102.052C102.188 16.6025 101.118 21.1681 100.978 22.2237H13.3142V20.6171H38.1106ZM40.5187 9.52494H72.3639L73.1654 6.44776H103.676L102.474 12.8705H14.8099L15.0783 10.9991H39.8352L40.5187 9.52494ZM41.8569 2.03237V0.536717H73.8381L74.2388 0H105.011C104.869 1.23 104.596 2.44144 104.198 3.6139H16.5345V2.00732L41.8569 2.03237ZM139.668 61.5436C140.205 61.812 142.889 67.0324 142.889 67.9842H107.555C106.216 66.2417 105.408 63.5652 104.61 61.5436H139.668ZM142.613 22.2022H108.621C110.65 19.8614 112.89 17.7115 115.312 15.7795H149.701L142.613 22.2022ZM144.352 70.9111L147.297 76.9295H111.433C110.231 75.4589 109.426 72.6357 108.625 70.9075L144.352 70.9111ZM112.507 80.1462H148.903L151.712 86.3006H115.183L112.507 80.1462ZM152.918 89.113L155.326 93.7967H118.529L116.382 89.113H152.918ZM153.319 12.8347H118.529C120.676 10.6878 122.944 8.28692 125.352 6.41199H160.418L153.319 12.8347ZM163.756 3.60317H128.297L132.176 0H168.039L163.756 3.60317Z" fill="white"/>
</svg>
