<svg width="25" height="24" viewBox="0 0 25 24" fill="none" xmlns="http://www.w3.org/2000/svg">
<path d="M24.7936 1.36246C24.5487 1.01044 24.1427 0.879904 23.7816 1.03655L0.849204 10.8156C0.391059 11.0121 0.069481 11.4886 0.00978113 12.0592C-0.0493466 12.627 0.16275 13.178 0.560622 13.4951L3.83859 16.1356C4.15616 16.3915 4.56452 16.419 4.9046 16.2072L12.0152 11.7825L6.47339 16.6655C6.21323 16.8948 6.05778 17.2605 6.05778 17.6436V22.1666C6.05778 22.6332 6.27465 23.0606 6.62369 23.2825C6.97331 23.5044 7.39559 23.4824 7.72766 23.224L10.2181 21.2747L12.6671 23.2452C12.8817 23.4187 13.1373 23.5101 13.3951 23.5101C13.4823 23.5101 13.5699 23.4995 13.6561 23.4783C14 23.3937 14.3042 23.143 14.4909 22.7905L24.8663 2.60214C25.0683 2.21345 25.0393 1.71604 24.7936 1.36246ZM13.3404 21.6938L10.8042 19.653C10.6278 19.5108 10.4245 19.4397 10.2213 19.4397C10.0226 19.4397 9.82364 19.5079 9.6495 19.6443L7.52339 21.3084V17.8988L17.309 9.27661C17.746 8.89152 17.856 8.19065 17.5648 7.64643C17.2734 7.1022 16.6899 6.91832 16.2075 7.21857L4.45065 14.5345L1.67814 12.3011L22.7957 3.29604L13.3404 21.6938Z" fill="black"/>
</svg>
