<svg width="22" height="22" viewBox="0 0 22 22" fill="none" xmlns="http://www.w3.org/2000/svg">
<g clip-path="url(#clip0_200_10)">
<path d="M5.5 17.875H2.75V20.625H5.5V17.875Z" fill="black"/>
<path d="M12.375 17.875H9.625V20.625H12.375V17.875Z" fill="black"/>
<path d="M19.25 17.875H16.5V20.625H19.25V17.875Z" fill="black"/>
<path d="M17.1875 11H11.6875V8.25H10.3125V11H4.8125C4.44796 11.0004 4.09846 11.1454 3.84069 11.4032C3.58292 11.661 3.43792 12.0105 3.4375 12.375V16.5H4.8125V12.375H10.3125V16.5H11.6875V12.375H17.1875V16.5H18.5625V12.375C18.5621 12.0105 18.4171 11.661 18.1593 11.4032C17.9015 11.1454 17.552 11.0004 17.1875 11Z" fill="black"/>
<path d="M11 6.875C10.4561 6.875 9.92442 6.71372 9.47218 6.41154C9.01995 6.10937 8.66747 5.67988 8.45933 5.17738C8.25119 4.67488 8.19673 4.12195 8.30284 3.5885C8.40895 3.05506 8.67086 2.56505 9.05546 2.18046C9.44005 1.79586 9.93006 1.53395 10.4635 1.42784C10.997 1.32173 11.5499 1.37619 12.0524 1.58433C12.5549 1.79247 12.9844 2.14495 13.2865 2.59718C13.5887 3.04942 13.75 3.5811 13.75 4.125C13.7492 4.8541 13.4592 5.55309 12.9436 6.06864C12.4281 6.58419 11.7291 6.87418 11 6.875V6.875ZM11 2.75C10.7281 2.75 10.4622 2.83064 10.2361 2.98173C10.01 3.13282 9.83374 3.34756 9.72967 3.59881C9.6256 3.85006 9.59837 4.12653 9.65142 4.39325C9.70448 4.65997 9.83543 4.90498 10.0277 5.09727C10.22 5.28957 10.465 5.42053 10.7318 5.47358C10.9985 5.52664 11.2749 5.49941 11.5262 5.39534C11.7774 5.29127 11.9922 5.11503 12.1433 4.88891C12.2944 4.66279 12.375 4.39695 12.375 4.125C12.3746 3.76045 12.2296 3.41093 11.9719 3.15315C11.7141 2.89537 11.3646 2.75038 11 2.75V2.75Z" fill="black"/>
</g>
<defs>
<clipPath id="clip0_200_10">
<rect width="22" height="22" fill="white"/>
</clipPath>
</defs>
</svg>
