<svg width="26" height="26" viewBox="0 0 26 26" fill="none" xmlns="http://www.w3.org/2000/svg">
<path d="M21.6408 4.34214C19.3304 2.08628 16.2592 0.844116 12.9916 0.844116C12.9914 0.844116 12.9907 0.844116 12.9905 0.844116C11.3743 0.844304 9.79942 1.14982 8.30975 1.7524C6.81988 2.35497 5.48511 3.22624 4.34221 4.34214C2.03197 6.59781 0.759755 9.59697 0.759755 12.787C0.759755 14.6895 1.22989 16.58 2.12069 18.2645L0.0646627 23.9994C-0.0802445 24.404 0.0223259 24.8436 0.332924 25.1467C0.550188 25.359 0.836154 25.4718 1.1302 25.4718C1.25625 25.4718 1.38365 25.4511 1.50796 25.4086L7.38161 23.4014C9.10683 24.2711 11.0432 24.7301 12.9916 24.7301C16.2589 24.7301 19.3304 23.4878 21.6408 21.2321C23.9511 18.9764 25.2235 15.9773 25.2235 12.7872C25.2235 9.59697 23.9513 6.59781 21.6408 4.34214ZM20.5947 20.2107C18.5639 22.1938 15.8636 23.2856 12.9916 23.2856C11.2346 23.2856 9.48921 22.8613 7.94392 22.0583C7.66373 21.9129 7.33254 21.8879 7.03522 21.9895L1.69886 23.813L3.56668 18.6027C3.67079 18.3121 3.64501 17.9887 3.49606 17.7153C2.67376 16.2069 2.23904 14.5027 2.23904 12.787C2.23904 9.9829 3.3575 7.34638 5.38832 5.36353C7.41894 3.38087 10.1189 2.28883 12.9907 2.28846H12.9916C15.8638 2.28846 18.5639 3.3805 20.5947 5.36353C22.6257 7.34638 23.7442 9.98272 23.7442 12.787C23.7442 15.5914 22.6257 18.2279 20.5947 20.2107Z" fill="black"/>
<path d="M17.5374 13.8539C16.9748 13.3045 16.0591 13.3045 15.4964 13.8539L14.881 14.4548C13.3528 13.6417 12.1162 12.4343 11.2833 10.9423L11.8988 10.3414C12.4617 9.79198 12.4617 8.89798 11.8988 8.34858L10.2403 6.72931C9.67763 6.17991 8.762 6.17991 8.1993 6.72931L6.87262 8.02465C6.11268 8.76665 6.07477 10.0423 6.76582 11.6166C7.36585 12.9836 8.46391 14.486 9.85775 15.8469C11.2516 17.2078 12.7903 18.2799 14.1903 18.8658C14.9564 19.1863 15.6533 19.3462 16.2554 19.3462C16.9207 19.3462 17.4703 19.151 17.8692 18.7615L19.1959 17.466V17.4661C19.4686 17.1999 19.6187 16.8461 19.6187 16.4697C19.6187 16.0932 19.4686 15.7394 19.1959 15.4733L17.5374 13.8539ZM16.8231 17.7401C16.6062 17.9518 15.9392 18.0261 14.7732 17.5383C13.542 17.0231 12.1678 16.0596 10.9039 14.8255C9.63991 13.5914 8.65327 12.2498 8.1256 11.0477C7.62583 9.90923 7.70185 9.2578 7.91872 9.04605L9.22 7.77551L10.8273 9.34498L10.0569 10.0973C9.70861 10.4374 9.62451 10.9532 9.84794 11.3808C10.8607 13.3199 12.4459 14.8676 14.4319 15.8565C14.87 16.0746 15.3983 15.9927 15.7466 15.6524L16.5169 14.9003L18.1244 16.4697L16.8231 17.7401Z" fill="black"/>
</svg>
