<svg width="36" height="26" viewBox="0 0 36 26" fill="none" xmlns="http://www.w3.org/2000/svg">
<path d="M17.9295 0.47998C12.4855 0.47998 7.3733 0.870605 4.6513 1.41687C2.83771 1.8075 1.26894 2.97937 0.940365 4.77686C0.611793 6.65064 0.279999 9.46436 0.279999 12.98C0.279999 16.4956 0.608572 19.23 1.0209 21.1831C1.35269 22.9012 2.91824 24.1525 4.73184 24.5431C7.62134 25.0894 12.566 25.48 18.01 25.48C23.454 25.48 28.3987 25.0894 31.285 24.5431C33.1018 24.1525 34.6674 22.9806 34.9959 21.1831C35.3277 19.23 35.7401 16.4193 35.8206 12.9037C35.8206 9.38806 35.4083 6.57434 34.9959 4.62122C34.6674 2.90308 33.1018 1.65186 31.285 1.26123C28.3987 0.870605 23.3703 0.47998 17.9295 0.47998ZM17.9295 2.04248C23.8664 2.04248 28.6468 2.5094 30.9564 2.90002C32.1934 3.21436 33.1824 3.99561 33.3466 5.01184C33.8427 7.51123 34.1713 10.1693 34.1713 12.9037C34.0908 16.2606 33.6784 18.995 33.3466 20.9481C33.1018 22.4313 31.4525 22.9012 30.9564 23.0599C27.9864 23.6062 23.0385 23.9938 18.0906 23.9938C13.1426 23.9938 8.1142 23.6825 5.22792 23.0599C3.99094 22.7456 3.002 21.9644 2.83771 20.9481C2.17734 18.76 1.9293 15.87 1.9293 12.98C1.9293 9.38501 2.2611 6.72998 2.58967 5.09119C2.83771 3.60498 4.56755 3.13501 4.97988 2.97937C7.70187 2.43311 12.7335 2.04248 17.9295 2.04248ZM13.4744 6.72998V19.23L25.0196 12.98L13.4744 6.72998ZM15.1237 9.38806L21.721 12.98L15.1237 16.5719V9.38806Z" fill="black"/>
</svg>
