<svg width="150" height="58" viewBox="0 0 150 58" fill="none" xmlns="http://www.w3.org/2000/svg">
<g clip-path="url(#clip0_45_5)">
<path d="M2.18444 53.8668L1.13784 54.9545V57.8474H0V49.285H1.1289V53.5197L4.93243 49.285H6.29927L2.92869 53.067L6.56227 57.8474H5.20974L2.18444 53.8668Z" fill="black"/>
<path d="M14.7365 53.8506C14.7531 54.604 14.6092 55.3524 14.3142 56.0458C14.0643 56.631 13.6466 57.1291 13.1138 57.4771C12.7132 57.7364 12.2614 57.9062 11.7891 57.9747C11.3169 58.0432 10.8354 58.0088 10.3776 57.8739C9.91992 57.739 9.49675 57.5067 9.13713 57.1931C8.77751 56.8794 8.48992 56.4917 8.29407 56.0566C7.99454 55.3865 7.84319 54.6597 7.85038 53.9258V53.3068C7.83563 52.5575 7.98206 51.8137 8.27975 51.1259C8.52632 50.5349 8.94579 50.0323 9.48313 49.6839C10.0205 49.3356 10.6506 49.1579 11.2907 49.174C11.9276 49.1605 12.5549 49.3307 13.0977 49.6642C13.6363 50.0128 14.0577 50.5152 14.3071 51.1062C14.6012 51.8 14.7451 52.5481 14.7293 53.3014L14.7365 53.8506ZM13.6129 53.2978C13.6129 52.2816 13.4096 51.5022 13.0029 50.9595C12.8059 50.6941 12.5467 50.4811 12.2482 50.3392C11.9497 50.1972 11.6209 50.1307 11.2907 50.1455C10.9647 50.1333 10.6407 50.2011 10.3469 50.343C10.0531 50.4849 9.79857 50.6966 9.60544 50.9595C9.19038 51.4986 8.98285 52.25 8.98285 53.2137V53.8506C8.98285 54.8346 9.18979 55.6099 9.60366 56.1764C9.80394 56.4343 10.0597 56.6438 10.352 56.7894C10.6443 56.9349 10.9656 57.0128 11.2921 57.0173C11.6186 57.0218 11.9419 56.9527 12.238 56.8152C12.5342 56.6777 12.7956 56.4753 13.0029 56.2229C13.4036 55.691 13.6094 54.9294 13.6201 53.9383L13.6129 53.2978Z" fill="black"/>
<path d="M20.3541 54.3874H18.3432V57.851H17.2125V49.285H20.0482C21.0131 49.285 21.7549 49.5044 22.2738 49.9433C22.7926 50.3823 23.052 51.0216 23.052 51.8612C23.063 52.3602 22.9117 52.8493 22.6208 53.2549C22.3177 53.6657 21.8992 53.9771 21.4186 54.1494L23.4241 57.7866V57.8564H22.2219L20.3541 54.3874ZM18.3432 53.4642H20.075C20.5594 53.4892 21.036 53.3343 21.4132 53.0295C21.5777 52.8839 21.7077 52.7036 21.7938 52.5015C21.8798 52.2994 21.9197 52.0807 21.9106 51.8612C21.9253 51.6358 21.8904 51.41 21.8085 51.1995C21.7266 50.989 21.5996 50.7991 21.4365 50.6429C21.1216 50.3602 20.666 50.2165 20.0697 50.2117H18.3414L18.3432 53.4642Z" fill="black"/>
<path d="M30.2512 53.89H26.5407V56.9314H30.8523V57.8546H25.4118V49.285H30.7933V50.2081H26.5407V52.9669H30.2512V53.89Z" fill="black"/>
<path d="M37.7688 55.6075H34.1907L33.3839 57.8474H32.2192L35.4896 49.285H36.4771L39.7529 57.8474H38.5954L37.7688 55.6075ZM34.5217 54.6843H37.4289L35.9708 50.6787L34.5217 54.6843Z" fill="black"/>
<path d="M48.2598 57.8474H47.1256L42.8139 51.2494V57.8474H41.6797V49.285H42.8139L47.1363 55.9045V49.285H48.2598V57.8474Z" fill="black"/>
<path d="M61.1107 55.1316C61.0045 56.0369 60.6706 56.7352 60.1088 57.2266C59.547 57.718 58.7992 57.9643 57.8653 57.9655C57.4036 57.9823 56.9442 57.8929 56.5224 57.7044C56.1006 57.5158 55.7276 57.233 55.4322 56.8777C54.8239 56.1514 54.5192 55.1811 54.518 53.9669V53.144C54.5032 52.4208 54.6492 51.7034 54.9456 51.0436C55.2029 50.4717 55.6229 49.9883 56.1532 49.6535C56.6991 49.3234 57.3277 49.1552 57.9655 49.1687C58.8744 49.1687 59.6031 49.4221 60.1517 49.929C60.7004 50.4359 61.02 51.139 61.1107 52.0383H59.971C59.8732 51.3525 59.6603 50.857 59.3323 50.5516C59.0049 50.2439 58.547 50.0918 57.9601 50.0918C57.6336 50.078 57.3085 50.1435 57.0128 50.2827C56.7171 50.422 56.4596 50.6309 56.2623 50.8916C55.852 51.4247 55.6475 52.1838 55.6487 53.169V53.9991C55.6487 54.9295 55.8425 55.6689 56.2301 56.2176C56.4095 56.482 56.6533 56.6964 56.9384 56.8407C57.2235 56.985 57.5406 57.0544 57.86 57.0423C58.4861 57.0423 58.9674 56.8992 59.3037 56.6165C59.6401 56.3339 59.8601 55.8365 59.971 55.1316H61.1107Z" fill="black"/>
<path d="M68.1631 55.6075H64.5761L63.7692 57.8474H62.6063L65.8749 49.285H66.8625L70.1383 57.8474H68.9807L68.1631 55.6075ZM64.916 54.6843H67.8268L66.3687 50.6787L64.916 54.6843Z" fill="black"/>
<path d="M75.2138 54.3874H73.2101V57.851H72.0758V49.285H74.9097C75.8746 49.285 76.6164 49.5044 77.1353 49.9433C77.6541 50.3823 77.9141 51.0216 77.9153 51.8612C77.9258 52.3604 77.7738 52.8495 77.4823 53.2549C77.1792 53.6657 76.7607 53.9771 76.2801 54.1494L78.2838 57.7866V57.8564H77.0726L75.2138 54.3874ZM73.2101 53.4606H74.9455C75.4299 53.4856 75.9064 53.3308 76.2837 53.0259C76.4479 52.8802 76.5775 52.6998 76.6632 52.4977C76.749 52.2956 76.7886 52.077 76.7792 51.8576C76.7938 51.6324 76.759 51.4068 76.6775 51.1964C76.5959 50.986 76.4695 50.7959 76.3069 50.6393C75.9903 50.3566 75.5358 50.2135 74.9401 50.2081H73.2101V53.4606Z" fill="black"/>
<path d="M82.7958 54.0296C81.8262 53.7505 81.1231 53.4088 80.6812 53.0027C80.4686 52.8154 80.2993 52.5842 80.185 52.325C80.0707 52.0658 80.0141 51.7849 80.0192 51.5016C80.0146 51.1789 80.0853 50.8595 80.2257 50.5688C80.3661 50.2781 80.5722 50.0242 80.8279 49.8271C81.3658 49.387 82.0665 49.1669 82.93 49.1669C83.474 49.1569 84.013 49.2733 84.5044 49.5068C84.9429 49.7144 85.3147 50.0403 85.5778 50.4479C85.8278 50.8394 85.9595 51.2947 85.9571 51.7593H84.8211C84.8328 51.5316 84.7947 51.3042 84.7094 51.0928C84.6241 50.8815 84.4937 50.6913 84.3273 50.5355C83.9981 50.2386 83.5347 50.0901 82.9336 50.0901C82.3766 50.0901 81.9425 50.2093 81.6312 50.4479C81.4777 50.5692 81.3554 50.7252 81.2742 50.9032C81.193 51.0811 81.1553 51.2758 81.1642 51.4712C81.1627 51.6447 81.202 51.8161 81.2791 51.9715C81.3562 52.1269 81.4689 52.262 81.6079 52.3658C81.9049 52.6043 82.4088 52.8255 83.1197 53.0295C83.7023 53.1771 84.2634 53.3997 84.7888 53.6914C85.1521 53.8948 85.4594 54.1849 85.6834 54.5359C85.8833 54.8798 85.9842 55.2724 85.975 55.6701C85.9844 55.993 85.9155 56.3134 85.774 56.6038C85.6326 56.8942 85.4228 57.1459 85.1628 57.3375C84.6225 57.755 83.8991 57.9637 82.9926 57.9637C82.4263 57.9682 81.8654 57.853 81.3467 57.6256C80.8759 57.431 80.4679 57.1104 80.1677 56.6988C79.8915 56.3092 79.7461 55.8418 79.7527 55.3642H80.8869C80.8777 55.5995 80.925 55.8336 81.0249 56.0469C81.1248 56.2601 81.2745 56.4463 81.4612 56.5897C81.9057 56.9095 82.4458 57.0685 82.9926 57.0406C83.5884 57.0406 84.0464 56.9189 84.3631 56.6827C84.5171 56.5684 84.6409 56.4182 84.7238 56.2451C84.8067 56.0721 84.8463 55.8815 84.8389 55.6898C84.8488 55.5042 84.814 55.3189 84.7374 55.1496C84.6609 54.9802 84.5447 54.8317 84.3988 54.7166C84.0959 54.4828 83.5616 54.2538 82.7958 54.0296Z" fill="black"/>
<path d="M91.9647 57.8474V49.285H94.3817C95.0699 49.2724 95.749 49.4428 96.3497 49.7787C96.9208 50.1067 97.3826 50.5959 97.6772 51.1849C97.9982 51.8354 98.1601 52.5528 98.1495 53.2781V53.8256C98.1657 54.5606 98.0056 55.2888 97.6825 55.9492C97.3877 56.5386 96.9227 57.0259 96.3479 57.3482C95.7283 57.6843 95.0329 57.8561 94.3281 57.8474H91.9647ZM93.0936 50.2081V56.9242H94.2816C95.1534 56.9242 95.8309 56.6535 96.3139 56.112C96.797 55.5753 97.0403 54.7988 97.0403 53.7988V53.2996C97.0403 52.3264 96.8119 51.5696 96.3551 51.0293C95.8983 50.489 95.25 50.2153 94.4104 50.2081H93.0936Z" fill="black"/>
<path d="M105.485 53.89H101.774V56.9314H106.086V57.8546H100.645V49.285H106.027V50.2081H101.774V52.9669H105.485V53.89Z" fill="black"/>
<path d="M109.408 56.9243H113.464V57.8474H108.276V49.285H109.41L109.408 56.9243Z" fill="black"/>
<path d="M116.749 57.8474H115.62V49.285H116.749V57.8474Z" fill="black"/>
<path d="M122.431 56.3553L124.876 49.2921H126.111L122.935 57.8546H121.935L118.767 49.2921H119.996L122.431 56.3553Z" fill="black"/>
<path d="M132.881 53.89H129.17V56.9314H133.48V57.8546H128.041V49.285H133.421V50.2081H129.17V52.9669H132.881V53.89Z" fill="black"/>
<path d="M138.809 54.3874H136.799V57.851H135.662V49.285H138.498C139.463 49.285 140.205 49.5044 140.724 49.9433C141.243 50.3823 141.502 51.0216 141.502 51.8612C141.513 52.3602 141.362 52.8493 141.071 53.2549C140.767 53.6661 140.348 53.9776 139.867 54.1494L141.879 57.7866V57.8564H140.668L138.809 54.3874ZM136.799 53.4642H138.532C139.017 53.4892 139.493 53.3343 139.87 53.0295C140.035 52.8839 140.165 52.7036 140.251 52.5015C140.337 52.2994 140.377 52.0807 140.368 51.8612C140.382 51.6358 140.348 51.41 140.266 51.1995C140.184 50.989 140.057 50.7991 139.894 50.6429C139.579 50.3602 139.123 50.2165 138.527 50.2117H136.799V53.4642Z" fill="black"/>
<path d="M146.204 53.5841L148.438 49.2903H149.719L146.767 54.6575V57.851H145.631V54.6539L142.679 49.2867H143.973L146.204 53.5841Z" fill="black"/>
<path d="M121.423 12.3785H111.07C111.372 13.433 111.607 14.5056 111.773 15.5898H120.897L121.423 12.3785Z" fill="#CB2A37"/>
<path d="M120.219 20.0732C120.42 19.0696 120.62 17.9979 120.62 16.9943H110.816C110.925 18.0409 110.66 19.1143 110.655 20.2056H120.019L120.219 20.0732Z" fill="#CB2A37"/>
<path d="M119.817 21.678H112.063C112.006 22.7535 111.893 23.8253 111.727 24.8894H119.282L119.817 21.678Z" fill="#CB2A37"/>
<path d="M119.01 26.2992H109.707C109.598 26.8359 109.481 27.3583 109.349 27.9093C109.217 28.4603 110.827 28.9971 110.669 29.5195H118.409C118.681 28.5033 119.01 27.3726 119.01 26.2992Z" fill="#CB2A37"/>
<path d="M109.871 9.12419C110.167 9.76348 110.434 10.4254 110.671 11.11H149.191L147.785 7.89868H109.809C109.931 8.29567 109.953 8.71681 109.871 9.12419Z" fill="#CB2A37"/>
<path d="M134.136 15.5898H149.927C149.927 14.7866 149.86 14.0512 149.792 13.248C149.726 13.1818 149.658 12.3785 149.526 12.3785H131.993C133.133 13.3821 133.602 14.1854 134.136 15.5898Z" fill="#CB2A37"/>
<path d="M103.696 1.80695H140.225C137.414 0.40075 134.002 0 130.922 0H108.379H94.8738C95.2584 0.0590389 99.6273 0.130603 100.008 0.225423C101.312 0.558304 102.556 1.09185 103.696 1.80695Z" fill="#CB2A37"/>
<path d="M108.064 3.22031H107.011L106.939 3.59601L107.431 4.03075L107.694 3.89657L107.515 4.7589H107.111C107.436 5.13818 107.75 5.53356 108.047 5.94862C108.299 6.08782 108.539 6.24949 108.762 6.43167H146.869L143.112 3.22031H108.064Z" fill="#CB2A37"/>
<path d="M134.203 21.9464C133.936 22.6155 133.802 24.0932 133.802 24.8894H148.857C149.394 24.0879 149.658 22.6155 149.658 21.678H134.337C134.271 21.678 134.203 21.8784 134.203 21.9464Z" fill="#CB2A37"/>
<path d="M149.993 16.9961H134.537V20.2074H149.726C150.061 19.202 149.993 18.0695 149.993 16.9961Z" fill="#CB2A37"/>
<path d="M108.66 33.9921H117.677C117.877 32.9437 118.214 31.8273 118.214 30.7718H110.258C109.886 31.8882 109.124 32.9598 108.66 33.9921Z" fill="#CB2A37"/>
<path d="M131.995 29.5069H147.585C148.121 29.5069 148.588 26.7643 148.588 26.2956H133.333L131.995 29.5069Z" fill="#CB2A37"/>
<path d="M96.0849 45.392L94.6322 45.4206C93.4801 46.0718 87.0985 46.5495 85.8909 46.9037C87.4831 46.9127 98.5502 46.9037 100.146 46.9037H122.493C126.314 46.8618 130.089 46.066 133.601 44.5619H98.8168L96.0849 45.392Z" fill="#CB2A37"/>
<path d="M128.449 33.8561H145.577C145.978 33.8561 147.05 31.2459 147.05 30.7772H131.46L128.449 33.8561Z" fill="#CB2A37"/>
<path d="M100.298 43.1557H136.478C137.951 43.1557 139.89 41.1483 140.76 40.0785H103.687C102.74 41.2217 101.364 42.254 100.298 43.1557Z" fill="#CB2A37"/>
<path d="M141.488 35.4609H107.138C106.57 36.4992 105.941 37.5023 105.252 38.4648H142.366L144.708 35.4538C143.635 35.4538 142.55 35.4663 141.466 35.4842L141.488 35.4609Z" fill="#CB2A37"/>
<path d="M64.4831 16.9961L63.2307 17.6061C63.8497 18.3414 64.5815 19.2646 65.0198 20.2074H81.3431C81.6942 19.1006 82.1402 18.0262 82.676 16.9961H64.4831Z" fill="black"/>
<path d="M97.4786 12.7757C98.0845 13.6384 98.5579 14.587 98.883 15.5898H112.364L112.022 12.3785H97.4357C97.4359 12.512 97.4503 12.6452 97.4786 12.7757Z" fill="black"/>
<path d="M93.7985 10.0688C94.547 10.2844 95.2493 10.6362 95.8702 11.1065H111.821L111.018 7.89511H74.8524C73.3281 8.98286 72.1223 9.79509 71.3065 11.1065H87.8964C89.8053 9.94 91.8627 9.51421 93.7985 10.0688Z" fill="black"/>
<path d="M67.7463 26.2992C67.9753 26.7446 67.8322 27.2814 67.8143 27.7984C67.8143 27.9612 67.7552 28.3065 67.8876 28.455C68.116 28.5338 68.349 28.5983 68.5853 28.6482C68.7709 28.6963 68.9325 28.8104 69.0399 28.9692C69.1472 29.1279 69.193 29.3204 69.1686 29.5105H80.6865C80.4745 28.4532 80.3672 27.3775 80.3663 26.2992H67.7463Z" fill="black"/>
<path d="M107.605 3.22031H80.2053C80.1605 3.40995 79.6095 3.58885 79.3877 3.71409C78.9368 3.97171 78.5397 4.47086 78.1157 4.78752C77.6243 5.13862 77.1878 5.56066 76.8204 6.03986C76.7023 6.1973 76.79 6.32075 76.6594 6.4263H110.147C109.746 5.65522 108.474 3.22031 107.605 3.22031Z" fill="black"/>
<path d="M69.8359 30.7718C69.9826 30.9507 69.9307 31.194 69.8645 31.4874C69.8202 31.6865 69.7421 31.8765 69.6337 32.0492C69.8259 32.1113 69.9908 32.2376 70.1007 32.407C70.1685 32.5221 70.2072 32.652 70.2134 32.7854C70.2196 32.9189 70.1932 33.0518 70.1365 33.1727C70.2635 33.1906 70.3905 33.2067 70.5211 33.221C70.9809 33.2675 71.3781 33.6093 71.4407 33.9724H82.0462C82.0263 33.461 81.9047 32.9586 81.6884 32.4947C81.4187 31.9349 81.1938 31.3546 81.0157 30.7593L69.8359 30.7718Z" fill="black"/>
<path d="M112.163 20.2056L112.364 16.9961H99.3303C99.3864 18.048 99.4335 19.1185 99.4717 20.2074L112.163 20.2056Z" fill="black"/>
<path d="M94.3066 33.84C94.2961 33.8895 94.2908 33.9398 94.2905 33.9903H108.943C109.48 32.9902 109.812 31.7773 110.349 30.77H96.7058C96.0335 31.8869 95.2279 32.9178 94.3066 33.84Z" fill="black"/>
<path d="M110.684 29.5069L111.415 26.2992H98.6147C98.5145 27.3869 97.6611 28.4568 97.5538 29.5105L110.684 29.5069Z" fill="black"/>
<path d="M86.3954 46.9037C91.0112 46.9037 95.6985 46.2149 99.6344 44.5619H76.4053C76.4296 44.6039 76.4511 44.6476 76.4697 44.6925C76.6128 45.0503 76.6969 45.4582 76.8722 45.7892C77.069 46.1595 77.3875 46.4726 77.5878 46.8429C77.5878 46.8554 77.5986 46.8697 77.6057 46.8823L77.663 46.9037H85.3237" fill="black"/>
<path d="M74.3819 40.8818C74.1511 41.4185 74.9705 42.3595 75.3945 42.6529C75.5931 42.7889 75.8131 42.9678 75.8561 43.1557H101.656C102.86 42.3685 103.93 41.1519 104.867 40.0785H74.4535C74.5751 40.3164 74.5 40.6116 74.3819 40.8818Z" fill="black"/>
<path d="M86.195 36.6274C85.4166 36.404 84.688 36.0342 84.0482 35.5379C83.8492 35.491 83.646 35.4653 83.4417 35.4609H72.1706C72.2337 35.6497 72.2235 35.8554 72.142 36.037C72.1241 36.096 72.108 36.1479 72.0901 36.1962C72.2048 36.453 72.3369 36.7017 72.4855 36.9405C72.6483 37.1963 72.8522 37.4217 72.9971 37.6883C73.0277 37.745 73.0517 37.8051 73.0687 37.8672L73.1242 37.9012C73.3567 38.0515 73.6108 38.259 73.6412 38.4719H106.059L108.132 35.4609H92.6177C92.4129 35.4995 92.2126 35.5595 92.0202 35.6398C90.1327 36.7687 88.104 37.1748 86.195 36.6274Z" fill="black"/>
<path d="M65.4097 21.678C65.6137 22.1718 65.8105 22.6477 66.0055 23.0788C66.2741 23.6661 66.5024 24.271 66.6889 24.8894H80.4217C80.5039 23.8069 80.6739 22.733 80.9298 21.678H65.4097Z" fill="black"/>
<path d="M81.878 1.80695H105.732C104.189 0.110923 96.9652 0.00536717 93.7896 0H84.0195L83.6367 0.0822951C83.5973 0.187363 83.5306 0.28001 83.4435 0.350654C83.0266 0.685208 82.5615 1.0305 82.0248 1.145H82.0069C82.0069 1.17183 82.0069 1.19509 81.9961 1.20046C81.9588 1.40284 81.8623 1.5896 81.7188 1.73717C81.6991 1.76222 81.9013 1.78906 81.878 1.80695Z" fill="black"/>
<path d="M86.1968 12.3785H69.7017C69.7017 12.5073 68.9736 12.6415 68.8895 12.7792C68.512 13.4 68.0164 13.5324 67.4833 13.9707C66.8947 14.4538 66.6317 15.0674 66.0878 15.5898H83.4954C84.2464 14.4021 85.1552 13.3218 86.1968 12.3785Z" fill="black"/>
<path d="M12.9635 45.3634H29.1545V44.5619H44.6101C44.544 44.9626 44.4098 46.6354 44.0734 46.9037H0.0500691C-0.0179151 46.6354 0.18246 46.3008 0.250444 46.1004H12.561L12.9635 45.3634ZM13.5646 41.6171H29.557L30.0937 40.0785H45.349L44.8123 43.1557H0.851568C0.851568 42.8891 0.919552 42.4865 1.11993 42.3524H13.5646V41.6171ZM14.1711 37.8708L14.5719 37.1337H30.4945L30.829 35.4609H46.2149L45.6782 38.4719H1.84628V37.8708H14.1711ZM15.4413 32.3247H31.364L31.7665 30.7843H47.0182L46.4171 34.0046H2.45814L2.72113 33.0528H15.0996C15.0987 32.913 15.1286 32.7747 15.187 32.6476C15.2454 32.5206 15.331 32.4079 15.4378 32.3175L15.4413 32.3247ZM15.7759 28.7108L16.1784 28.0417H32.101L32.4356 26.5031L32.6342 26.2992H67.8947L69.4333 29.5105H3.4618V28.7072L15.7759 28.7108ZM17.0479 23.1647H32.9705L33.3713 21.6923H65.5529L67.163 24.9037H4.06293L4.33129 23.9H16.7098L17.0479 23.1647ZM17.717 19.2843V18.5472H33.7076L34.2443 17.0086H64.483L63.9463 17.7457C63.8139 18.0122 64.8838 19.8925 65.0197 20.2199H5.06659V19.2843H17.717ZM18.3861 14.0656H34.5664L34.9689 12.3928H50.1562L49.9558 14.6005C49.9558 14.6667 49.8897 14.8689 49.9558 14.8689C50.3566 14.8689 52.4319 12.722 52.8327 12.3928H69.6945V12.527L66.0806 15.6042H5.78937L5.92355 14.8009H18.3682L18.3861 14.0656ZM19.0552 10.3086L19.3898 9.57325H35.3124L35.8491 7.90048H51.0257C51.0937 8.30123 50.5588 10.5841 50.489 11.1118H6.65706V10.3086H19.0552ZM20.2593 4.76247H36.1819L36.5826 3.22388H51.8379L51.2368 6.43524H7.40489L7.53907 5.49956H19.9176L20.2593 4.76247ZM20.9284 1.01618V0.268359H36.919L37.1194 0H52.5053C52.4343 0.615 52.2981 1.22072 52.0991 1.80695H8.26721V1.00366L20.9284 1.01618ZM69.8341 30.7718C70.1024 30.906 71.4442 33.5162 71.4442 33.9921H53.7773C53.1082 33.1208 52.7038 31.7826 52.3049 30.7718H69.8341ZM71.3065 11.1011H54.3104C55.3252 9.93071 56.445 8.85576 57.656 7.88975H74.8506L71.3065 11.1011ZM72.176 35.4556L73.6484 38.4647H55.7166C55.1155 37.7294 54.713 36.3179 54.3122 35.4538L72.176 35.4556ZM56.2533 40.0731H74.4516L75.856 43.1503H57.5916L56.2533 40.0731ZM76.459 44.5565L77.663 46.8984H59.2643L58.1909 44.5565H76.459ZM76.6593 6.41735H59.2643C60.3378 5.34392 61.472 4.14346 62.6761 3.20599H80.2088L76.6593 6.41735ZM81.878 1.80158H64.1485L66.0878 0H84.0195L81.878 1.80158Z" fill="#CB2A37"/>
</g>
<defs>
<clipPath id="clip0_45_5">
<rect width="150" height="57.9655" fill="white"/>
</clipPath>
</defs>
</svg>
